# xmcd CD database file
#
# Track frame offsets:
#	150
#	9658
#	25367
#	40602
#	57473
#	73843
#	93167
#	112871
#	124933
#	139386
#	154674
#	169322
#	187052
#	199789
#	216690
#	230503
#	247003
#	269939
#
# Disc length: 3633 seconds
#
# Revision: 0
# Processed by: cddbd v1.4PL0 Copyright (c) Steve Scherf et al.
# Submitted via: CDex 1.50beta9
#
DISCID=1a0e2f12
DTITLE=Klaus Niegratschka - Good Enough For Me
DYEAR=2000
DGENRE=Blues
TTITLE0=Big Yellow Taxi
TTITLE1=Angelsea
TTITLE2=Winstons Lament
TTITLE3=Rehearsal Song
TTITLE4=Klaustrophobie
TTITLE5=Lethargic
TTITLE6=Aching In My Heart
TTITLE7=Tell Me
TTITLE8=Rock 'N Roll's For Me
TTITLE9=America
TTITLE10=Once Again
TTITLE11=Stand By Me No1602
TTITLE12=A Walk With Alex
TTITLE13=Road To Find Out
TTITLE14=Trouble
TTITLE15=Baby I Mean It
TTITLE16=Good Enough For Me
TTITLE17=Country Roads (Almost)
EXTD=YEAR: 2000
EXTT0=
EXTT1=
EXTT2=
EXTT3=
EXTT4=
EXTT5=
EXTT6=
EXTT7=
EXTT8=
EXTT9=
EXTT10=
EXTT11=
EXTT12=
EXTT13=
EXTT14=
EXTT15=
EXTT16=
EXTT17=
PLAYORDER=
